<svg width="207" height="320" viewBox="0 0 207 320" fill="none" xmlns="http://www.w3.org/2000/svg">
<path d="M33.325 182.739C40.2038 157.394 62.8047 144.726 101.119 144.726C139.438 144.726 163.021 157.394 171.86 182.739H166.256C161.152 160.927 139.438 150.016 101.119 150.016C65.751 150.016 44.71 160.927 38.0044 182.739H33.325Z" fill="#F4C6FF"/>
<path d="M121.231 171.179L61.546 61.1752C58.8107 56.135 59.9224 50.6732 63.0529 45.9443C68.736 37.846 88.1812 20.3139 106.111 20.6798C118.738 20.9375 133.884 23.5054 143.074 21.4341C165.759 16.3166 173.508 2.94685 173.508 2.94685C173.508 2.94685 180.59 33.3437 162.882 57.8211C153.443 70.8772 144.048 85.8221 109.439 77.3517C105.935 76.4966 103.59 75.5778 102.184 76.6702C100.774 77.7583 102.51 80.536 102.994 81.5336C103.374 82.3165 144.431 157.566 161.675 189.704C167.743 199.909 173.303 211.121 173.702 223.807C174.805 259.216 144.4 288.948 105.779 290.21C67.1612 291.473 34.9606 263.793 33.8537 228.38C32.7625 193.425 62.39 164.002 100.301 162.042L108.972 178.026C110.836 181.461 115.086 182.706 118.476 180.817C121.857 178.923 123.095 174.61 121.231 171.179Z" fill="#A08FE9"/>
<path d="M1.69731 214.466C-3.54688 212.324 7.35586 250.061 44.1447 241.65L44.0358 236.311C33.5946 237.981 25.4638 237.177 19.6433 233.895C10.9167 228.976 6.53365 216.444 1.69731 214.466Z" fill="#A08FE9"/>
<path d="M34.8562 179.394L36.3287 179.439C39.583 179.539 42.1419 182.26 42.0423 185.514L40.9599 220.87C40.8602 224.124 38.1397 226.683 34.8854 226.583L31.9405 226.493C28.6862 226.393 26.1273 223.673 26.2269 220.419L27.2641 186.539C27.3886 182.473 30.7894 179.27 34.8562 179.394Z" fill="#F4C6FF"/>
<path d="M169.967 178.792L171.435 178.757C175.507 178.66 178.886 181.886 178.983 185.953L179.79 219.839C179.867 223.094 177.29 225.797 174.035 225.874L171.09 225.944C167.835 226.022 165.132 223.445 165.054 220.19L164.212 184.827C164.135 181.572 166.712 178.869 169.967 178.792Z" fill="#F4C6FF"/>
<path d="M204.755 218.793C209.958 216.54 199.828 254.495 162.875 246.836V241.497C173.348 242.953 181.457 241.984 187.209 238.583C195.833 233.483 199.964 220.868 204.755 218.793Z" fill="#A08FE9"/>
<path d="M92.1355 272.154H98.0281V313.04H92.1355V272.154Z" fill="#A08FE9"/>
<path d="M121.611 273.188H127.503V312.007H121.611V273.188Z" fill="#A08FE9"/>
<path d="M83.2918 312.928H98.0275V318.825H83.2918C81.6618 318.825 80.3413 317.505 80.3413 315.879C80.3413 314.249 81.6618 312.928 83.2918 312.928Z" fill="#A08FE9"/>
<path d="M122.219 310.475L136.753 312.907C138.361 313.177 139.445 314.697 139.176 316.304C138.908 317.908 137.387 318.992 135.78 318.723L121.246 316.291L122.219 310.475Z" fill="#A08FE9"/>
</svg>
