<svg width="244" height="45" viewBox="0 0 244 45" fill="none" xmlns="http://www.w3.org/2000/svg">
<path d="M0.374875 43V3.792H10.5669L29.2349 27.764H29.3389V3.792H39.5309V43H29.3389L10.6709 18.976H10.5669V43H0.374875ZM77.1436 16.324V43H67.6796V40.036H67.5756C66.8129 41.284 65.7729 42.22 64.4556 42.844C63.1382 43.4333 61.7689 43.7627 60.3476 43.832C60.2089 43.8667 60.0702 43.884 59.9316 43.884C59.7929 43.884 59.6542 43.884 59.5156 43.884C55.5636 43.884 52.3222 42.48 49.7916 39.672C47.2956 36.8293 46.0476 33.5013 46.0476 29.688C46.0476 25.8747 47.2782 22.564 49.7396 19.756C52.2356 16.9133 55.4596 15.492 59.4116 15.492C59.5849 15.492 59.7582 15.492 59.9316 15.492C60.1049 15.492 60.2782 15.5093 60.4516 15.544C61.8036 15.648 63.1209 15.9947 64.4036 16.584C65.7209 17.1387 66.8129 17.936 67.6796 18.976V16.324H77.1436ZM61.9076 23.656C60.0009 23.6907 58.5102 24.3147 57.4356 25.528C56.3609 26.7067 55.8236 28.1107 55.8236 29.74C55.8236 31.4387 56.3609 32.86 57.4356 34.004C58.5102 35.148 60.0009 35.72 61.9076 35.72C63.8489 35.72 65.3396 35.148 66.3796 34.004C67.4542 32.86 67.9916 31.4387 67.9916 29.74C67.9916 28.1107 67.4542 26.7067 66.3796 25.528C65.3396 24.3147 63.8489 23.708 61.9076 23.708V23.656ZM92.1249 16.324L98.5209 30L104.865 16.324H115.473L101.537 43H95.5049L81.5169 16.324H92.1249ZM129.279 16.324V43H119.815V16.324H129.279ZM124.547 0.775998C126.003 0.810664 127.251 1.348 128.291 2.388C129.331 3.428 129.851 4.676 129.851 6.132C129.851 7.588 129.331 8.836 128.291 9.876C127.251 10.916 126.003 11.436 124.547 11.436C123.091 11.436 121.843 10.916 120.803 9.876C119.763 8.836 119.243 7.588 119.243 6.132C119.243 4.676 119.763 3.428 120.803 2.388C121.843 1.348 123.091 0.827997 124.547 0.827997V0.775998ZM137.143 22.408H152.015V30.208H137.143V22.408ZM178.954 21.108H199.182C199.147 23.9853 198.905 26.6893 198.454 29.22C198.003 31.716 196.911 34.1947 195.178 36.656C193.271 39.3253 190.914 41.2667 188.106 42.48C185.333 43.6933 182.299 44.3 179.006 44.3C172.835 44.3 167.809 42.4107 163.926 38.632C160.043 34.8187 158.102 29.8267 158.102 23.656C158.102 17.2773 160.061 12.164 163.978 8.316C167.93 4.468 173.061 2.544 179.37 2.544C183.391 2.544 186.91 3.46266 189.926 5.3C192.977 7.10266 195.351 9.84133 197.05 13.516L187.378 17.52C186.685 15.6827 185.61 14.192 184.154 13.048C182.698 11.904 180.947 11.332 178.902 11.332C175.747 11.332 173.303 12.5107 171.57 14.868C169.871 17.2253 168.935 19.808 168.762 22.616C168.727 22.7893 168.71 22.98 168.71 23.188C168.71 23.3613 168.71 23.5347 168.71 23.708C168.71 23.7427 168.71 23.7947 168.71 23.864C168.71 23.8987 168.71 23.9507 168.71 24.02C168.779 27.0013 169.698 29.74 171.466 32.236C173.234 34.732 175.765 35.98 179.058 35.98C181.277 35.98 183.149 35.408 184.674 34.264C186.199 33.12 187.066 31.4213 187.274 29.168L178.954 29.116V21.108ZM215.107 16.324V43H205.643V16.324H215.107ZM210.375 0.775998C211.831 0.810664 213.079 1.348 214.119 2.388C215.159 3.428 215.679 4.676 215.679 6.132C215.679 7.588 215.159 8.836 214.119 9.876C213.079 10.916 211.831 11.436 210.375 11.436C208.919 11.436 207.671 10.916 206.631 9.876C205.591 8.836 205.071 7.588 205.071 6.132C205.071 4.676 205.591 3.428 206.631 2.388C207.671 1.348 208.919 0.827997 210.375 0.827997V0.775998ZM237.683 24.124V43H228.219V24.124H225.151V16.324H228.219V8.316H237.683V16.324H243.039V24.124H237.683Z" fill="white"/>
</svg>
